<mxfile host="drawio-plugin" modified="2023-07-18T13:17:31.746Z" agent="5.0 (Windows NT 6.2; Win64; x64) AppleWebKit/537.36 (KHTML, like Gecko) Chrome/104.0.5112.102 Safari/537.36" etag="en8ycUcxNmgE-8qdlcJK" version="20.5.3" type="embed"><diagram id="9-RTK4xd1evoTx4I6qmm" name="Page-1"><mxGraphModel dx="1022" dy="520" grid="1" gridSize="10" guides="1" tooltips="1" connect="1" arrows="1" fold="1" page="1" pageScale="1" pageWidth="850" pageHeight="1100" math="0" shadow="0"><root><mxCell id="0"/><mxCell id="1" parent="0"/><mxCell id="5" style="edgeStyle=orthogonalEdgeStyle;rounded=0;orthogonalLoop=1;jettySize=auto;html=1;fontSize=11;" parent="1" source="2" target="3" edge="1"><mxGeometry relative="1" as="geometry"/></mxCell><mxCell id="6" style="edgeStyle=orthogonalEdgeStyle;rounded=0;orthogonalLoop=1;jettySize=auto;html=1;fontSize=11;" parent="1" source="2" target="4" edge="1"><mxGeometry relative="1" as="geometry"/></mxCell><mxCell id="2" value="MatchingServer" style="rounded=0;whiteSpace=wrap;html=1;" parent="1" vertex="1"><mxGeometry x="365" y="160" width="120" height="60" as="geometry"/></mxCell><mxCell id="3" value="LobbyRoomServer" style="whiteSpace=wrap;html=1;" parent="1" vertex="1"><mxGeometry x="220" y="330" width="120" height="60" as="geometry"/></mxCell><mxCell id="4" value="&lt;font style=&quot;font-size: 11px;&quot;&gt;MiniGameRoomServer&lt;/font&gt;" style="whiteSpace=wrap;html=1;" parent="1" vertex="1"><mxGeometry x="520" y="330" width="120" height="60" as="geometry"/></mxCell><mxCell id="7" value="" style="ellipse;whiteSpace=wrap;html=1;fontSize=11;fillColor=none;" parent="1" vertex="1"><mxGeometry x="200" y="300" width="160" height="120" as="geometry"/></mxCell><mxCell id="8" value="" style="ellipse;whiteSpace=wrap;html=1;fontSize=11;fillColor=none;" vertex="1" parent="1"><mxGeometry x="500" y="300" width="160" height="120" as="geometry"/></mxCell><mxCell id="9" value="LobbyServerClaster" style="text;html=1;strokeColor=none;fillColor=none;align=center;verticalAlign=middle;whiteSpace=wrap;rounded=0;" vertex="1" parent="1"><mxGeometry x="140" y="290" width="60" height="30" as="geometry"/></mxCell><mxCell id="10" value="MiniGameServerClaster" style="text;html=1;strokeColor=none;fillColor=none;align=center;verticalAlign=middle;whiteSpace=wrap;rounded=0;" vertex="1" parent="1"><mxGeometry x="650" y="280" width="60" height="30" as="geometry"/></mxCell><mxCell id="11" value="ClusterManager" style="whiteSpace=wrap;html=1;fillColor=none;" vertex="1" parent="1"><mxGeometry x="360" y="450" width="120" height="60" as="geometry"/></mxCell></root></mxGraphModel></diagram></mxfile>